<svg width="300" height="73" viewBox="0 0 300 73" fill="none" xmlns="http://www.w3.org/2000/svg">
<path d="M29.9252 57.2561C23.3092 57.2561 17.8248 55.0788 13.4687 50.731C9.15625 46.3362 7 40.878 7 34.353C7 27.8279 9.15625 22.3898 13.4687 18.0387C17.8248 13.6473 23.3092 11.4499 29.9252 11.4499C33.9062 11.4499 37.5893 12.3926 40.981 14.2746C44.3728 16.1566 47.0346 18.6861 48.9598 21.8665L39.2232 27.4522C38.3862 25.9023 37.1306 24.6912 35.4531 23.8123C33.8225 22.893 31.9777 22.4301 29.9252 22.4301C26.4096 22.4301 23.5603 23.5405 21.3839 25.758C19.2478 27.9319 18.1797 30.7969 18.1797 34.353C18.1797 37.909 19.2478 40.7941 21.3839 43.0117C23.5603 45.1856 26.4096 46.2759 29.9252 46.2759C31.9777 46.2759 33.8225 45.8364 35.4531 44.9574C37.1306 44.0382 38.3862 42.7802 39.2232 41.1934L48.9598 46.8395C47.0346 50.06 44.3728 52.613 40.981 54.4951C37.6328 56.3335 33.9464 57.2561 29.9252 57.2561Z" fill="#2B2F44"/>
<path fill-rule="evenodd" clip-rule="evenodd" d="M80.3694 56.3134L78.4844 49.9762H63.8493L61.9643 56.3134H49.7802L64.288 12.3926H77.9822L92.4933 56.3134H80.3694ZM66.7389 40.3144H75.5949L71.1351 25.3823L66.7389 40.3144Z" fill="#2B2F44"/>
<path d="M146.45 12.3926H135.203V56.3134H146.45V12.3926Z" fill="#2B2F44"/>
<path d="M198.173 56.3134H186.99V32.6588L176.312 50.2915H175.184L164.567 32.7225V56.3134H153.324V12.3926H164.567L175.747 31.1525L186.99 12.3926H198.173V56.3134Z" fill="#2B2F44"/>
<path fill-rule="evenodd" clip-rule="evenodd" d="M238.429 43.4511C238.429 39.0597 236.587 35.7754 232.901 33.6015C235.623 31.4679 236.986 28.5593 236.986 24.8791C236.986 21.0311 235.663 17.9984 233.028 15.7809C230.39 13.5231 226.871 12.3926 222.474 12.3926H205.137V56.3134H223.666C228.15 56.3134 231.729 55.1425 234.407 52.8009C237.089 50.4593 238.429 47.3427 238.429 43.4511ZM216.381 22.4334H222.16C223.208 22.4334 224.065 22.7454 224.734 23.3728C225.407 24.0001 225.739 24.8388 225.739 25.8821C225.739 26.9724 225.384 27.8279 224.674 28.4553C224.005 29.0423 223.164 29.3342 222.16 29.3342H216.381V22.4334ZM226.117 45.2728C225.407 45.9404 224.483 46.2759 223.352 46.2759H216.381V38.8719H223.352C224.483 38.8719 225.407 39.2073 226.117 39.8749C226.827 40.5459 227.185 41.445 227.185 42.5722C227.185 43.6625 226.827 44.5616 226.117 45.2728Z" fill="#2B2F44"/>
<path d="M128.091 45.5311H111.926L127.586 20.9574V12.2416H97.539V23.1682H112.877L97.2209 47.7419V56.461H128.091V45.5311Z" fill="#2B2F44"/>
<path fill-rule="evenodd" clip-rule="evenodd" d="M248.688 8.6218C247.743 8.444 246.786 9.0076 246.35 9.82617C245.195 11.9833 244.827 14.4457 244.76 16.8544C244.79 19.7328 245.142 22.581 245.493 25.4326C246.076 28.5559 247.358 34.4066 248.547 36.557C247.455 35.7184 246.689 34.6146 246.163 33.4069C246.093 33.8833 245.939 34.3462 245.661 34.7589C244.094 38.637 243.692 43.0217 244.683 47.0978C245.5 50.4224 247.72 53.4618 250.854 54.9848C252.933 56.1255 254.959 56.5515 256.991 56.9809C259.057 57.4204 261.129 57.8565 263.259 59.0441C265.586 60.282 270.581 60.5404 272.982 59.3494C275.215 58.2189 277.378 57.7022 279.525 57.1923C281.831 56.6421 284.118 56.0986 286.445 54.797C289.134 53.2638 291.146 50.684 292 47.7452C293.138 43.9443 292.824 39.8649 291.715 36.0941C291.605 35.6949 291.421 35.3158 291.237 34.9367H291.233V34.9333C291.026 34.5039 290.815 34.0779 290.718 33.6216C290.195 34.7455 289.455 35.7687 288.427 36.557C289.435 34.7388 290.503 30.2735 291.163 27.0496C291.23 26.5028 291.304 25.9526 291.374 25.4058L291.381 25.3655C291.515 24.3255 291.648 23.2855 291.766 22.2456L291.836 21.3599C292.111 18.0118 292.395 14.5598 291.17 11.3593L291.109 11.205C290.694 10.1315 290.192 8.8298 288.89 8.64864C287.256 8.55806 285.766 9.37663 284.373 10.1415V10.1449L284.135 10.2757C281.048 12.5402 278.436 15.4018 276.119 18.4144C275.199 19.7093 274.375 20.9305 273.809 21.8027C274.01 20.8466 274.429 19.5047 275.102 18.1225C272.821 17.4885 270.484 17.0088 268.107 17.0993C265.944 17.0322 263.838 17.5522 261.772 18.1427C262.439 19.5181 262.857 20.85 263.055 21.8027C262.472 20.907 261.615 19.6355 260.661 18.297C258.759 15.7675 256.552 13.4762 254.199 11.3526C252.605 10.061 250.743 8.99418 248.688 8.6218ZM282.381 37.2582C279.863 36.8321 276.126 37.54 273.729 39.9152C273.541 40.14 273.213 40.1701 272.989 39.989C272.765 39.8078 272.731 39.4824 272.915 39.261C275.594 36.027 279.802 35.1816 282.752 36.2887C283.023 36.3893 283.157 36.6879 283.057 36.9563C282.953 37.2246 282.648 37.3588 282.381 37.2582ZM254.326 37.389C256.814 36.8925 260.57 37.4863 263.058 39.7911C263.246 40.0091 263.577 40.0292 263.798 39.8414C264.016 39.6535 264.039 39.3281 263.848 39.11C261.076 35.9599 256.84 35.2386 253.924 36.4329C253.66 36.5403 253.532 36.8456 253.643 37.1072C253.753 37.3723 254.061 37.4997 254.326 37.389ZM281.135 48.7617C281.369 48.9295 281.42 49.2549 281.246 49.4864C279.317 52.0796 276.113 53.7369 273.421 53.814C271.382 53.8543 269.426 53.3477 268.398 52.2205L268.362 52.2239L268.331 52.2205C267.304 53.3477 265.348 53.8543 263.306 53.814C260.614 53.7369 257.413 52.0796 255.481 49.4864C255.31 49.2549 255.361 48.9295 255.595 48.7617C255.826 48.5906 256.157 48.641 256.328 48.8724C258.016 51.1436 260.875 52.187 263.339 52.2608C264.454 52.291 266.912 52.1064 267.414 50.7847C267.113 50.3251 266.52 50.1775 266.001 50.0433L265.924 50.0231C265.315 49.8655 264.766 49.7246 264.766 49.4025C264.766 48.906 264.772 48.4263 265.261 48.2485C266.266 48.0036 267.324 47.9599 268.362 47.9599C269.413 47.9599 270.448 48.0002 271.465 48.2485C271.951 48.4263 271.961 48.906 271.961 49.4025C271.961 49.7246 271.408 49.8655 270.799 50.0231L270.722 50.0433C270.203 50.1741 269.617 50.3251 269.316 50.778C269.811 52.1064 272.276 52.291 273.391 52.2608C275.855 52.187 278.714 51.1436 280.402 48.8724C280.573 48.641 280.901 48.5906 281.135 48.7617Z" fill="#FF7C1E"/>
</svg>
